<?xml version="1.0" encoding="utf-8"?>
<svg version="1.1" viewBox="0.00 0.00 404.00 404.00" xmlns="http://www.w3.org/2000/svg">
  <defs>
    <linearGradient gradientUnits="userSpaceOnUse" x1="209.568" y1="191.218" x2="209.568" y2="380.279" id="gradient-0">
      <stop offset="0" style="stop-color: rgb(142, 142, 141);"/>
      <stop offset="1" style="stop-color: rgb(99, 98, 97);"/>
    </linearGradient>
    <linearGradient gradientUnits="userSpaceOnUse" x1="165.1" y1="25.068" x2="165.1" y2="60.51" id="gradient-1" gradientTransform="matrix(0.984478, 0.175503, -0.075633, 0.42426, 2.150762, 9.577385)">
      <stop offset="0" style="stop-color: rgb(216, 216, 216);"/>
      <stop offset="1" style="stop-color: rgb(171, 171, 171);"/>
    </linearGradient>
  </defs>
  <g stroke-width="2.00" fill="none" stroke-linecap="butt">
    <path stroke="#afafaf" vector-effect="non-scaling-stroke" d=" M 173.42 41.09 L 174.96 42.27"/>
    <path stroke="#919291" vector-effect="non-scaling-stroke" d=" M 174.96 42.27 Q 181.59 51.89 190.09 60.51"/>
    <path stroke="#e8e8e8" vector-effect="non-scaling-stroke" d=" M 190.09 60.51 C 170.89 57.51 157.11 57.26 140.35 56.75"/>
    <path stroke="#afafaf" vector-effect="non-scaling-stroke" d=" M 140.35 56.75 Q 139.63 53.46 141.07 49.18"/>
    <path stroke="#999999" vector-effect="non-scaling-stroke" d=" M 218.06 74.47 C 229.72 84.83 232.08 95.55 237.12 109.66 C 241.84 122.87 251.36 128.13 263.99 134.86"/>
    <path stroke="#999999" vector-effect="non-scaling-stroke" d=" M 268.30 152.19 Q 244.72 165.53 218.42 164.78"/>
    <path stroke="#e8e8e8" vector-effect="non-scaling-stroke" d=" M 218.42 164.78 Q 211.62 161.85 204.37 161.55 Q 203.89 161.53 203.57 161.17 Q 201.29 158.62 197.31 158.14 C 135.22 150.62 83.42 200.50 66.77 255.74 Q 56.65 289.31 70.58 322.61 Q 71.83 325.60 73.68 328.32 Q 74.14 329.01 72.41 329.81"/>
    <path stroke="#999999" vector-effect="non-scaling-stroke" d=" M 34.00 263.93 Q 34.69 262.71 34.39 260.78 Q 33.96 257.97 33.94 257.71 C 31.68 217.69 46.22 170.46 84.66 151.98 Q 86.25 151.21 84.49 151.27 L 65.26 151.84 A 0.74 0.74 0.0 0 1 64.63 150.68 C 67.24 147.02 70.24 143.91 72.70 140.07 Q 85.44 120.21 107.33 110.21"/>
    <path stroke="#e8e8e8" vector-effect="non-scaling-stroke" d=" M 107.33 110.21 Q 108.73 111.09 109.97 110.98 A 0.82 0.82 0.0 0 0 110.70 110.36 Q 110.92 109.55 109.86 108.88"/>
    <path stroke="#999999" vector-effect="non-scaling-stroke" d=" M 109.86 108.88 L 106.24 103.91"/>
    <path stroke="#bebfbe" vector-effect="non-scaling-stroke" d=" M 140.35 56.75 Q 139.72 56.58 139.26 57.05"/>
    <path stroke="#5e5e5d" vector-effect="non-scaling-stroke" d=" M 340.65 317.80 L 342.91 297.88"/>
    <path stroke="#616161" vector-effect="non-scaling-stroke" d=" M 342.91 297.88 L 342.97 281.73"/>
    <path stroke="#636463" vector-effect="non-scaling-stroke" d=" M 342.97 281.73 Q 342.77 270.70 340.56 259.64"/>
    <path stroke="#686968" vector-effect="non-scaling-stroke" d=" M 340.56 259.64 Q 335.57 233.90 319.13 213.26 Q 318.82 212.87 318.35 212.70 C 305.94 208.34 292.77 202.45 279.67 201.08 A 0.25 0.25 0.0 0 1 279.67 200.58 Q 290.46 199.47 301.28 200.34 Q 301.39 200.35 301.42 200.25 Q 301.46 200.12 301.50 200.00 A 0.13 0.12 -74.3 0 0 301.42 199.84 C 299.40 199.35 297.29 198.98 295.34 198.17 Q 280.78 192.18 264.05 191.23"/>
    <path stroke="#434343" vector-effect="non-scaling-stroke" d=" M 264.05 191.23 Q 262.93 178.31 263.56 174.82 C 264.38 170.32 264.47 162.49 262.74 158.15 Q 262.18 156.76 263.68 156.12 Q 267.81 154.37 268.30 152.19"/>
    <path stroke="#a1a1a1" vector-effect="non-scaling-stroke" d=" M 268.30 152.19 Q 272.91 149.63 276.69 146.18 Q 278.27 144.73 279.48 142.07 Q 279.69 141.61 279.22 141.40 L 263.99 134.86"/>
    <path stroke="#434343" vector-effect="non-scaling-stroke" d=" M 263.99 134.86 Q 264.61 134.88 264.85 134.20 Q 265.03 133.70 264.66 133.31 C 263.93 132.52 263.10 131.73 262.75 130.67 Q 252.76 100.12 228.76 79.10 C 225.78 76.49 222.21 75.39 218.65 73.34 A 0.55 0.55 0.0 0 0 217.87 74.05 L 218.06 74.47"/>
    <path stroke="#a1a1a1" vector-effect="non-scaling-stroke" d=" M 218.06 74.47 C 209.32 67.79 200.83 64.28 190.09 60.51"/>
    <path stroke="#686968" vector-effect="non-scaling-stroke" d=" M 174.96 42.27 Q 175.34 41.75 175.26 41.38"/>
    <path stroke="#8a8a8a" vector-effect="non-scaling-stroke" d=" M 109.86 108.88 Q 108.21 109.28 107.33 110.21"/>
    <path stroke="#606160" vector-effect="non-scaling-stroke" d=" M 264.05 191.23 Q 238.69 190.86 214.48 202.38"/>
    <path stroke="#5b5c5b" vector-effect="non-scaling-stroke" d=" M 214.48 202.38 L 212.19 202.79"/>
    <path stroke="#8a8a8a" vector-effect="non-scaling-stroke" d=" M 212.19 202.79 C 212.70 190.58 211.99 176.91 207.36 165.31 Q 207.15 164.80 207.70 164.80 L 218.42 164.78"/>
    <path stroke="#afafaf" vector-effect="non-scaling-stroke" d=" M 133.96 53.51 Q 136.30 54.29 139.26 57.05"/>
    <path stroke="#e8e8e8" vector-effect="non-scaling-stroke" d=" M 139.26 57.05 L 139.04 58.59 Q 138.96 59.13 138.43 59.27 C 133.32 60.62 126.88 62.35 121.78 60.00 Q 111.20 55.12 100.83 50.42 A 0.46 0.46 0.0 0 0 100.22 51.03 Q 103.57 58.29 107.60 65.18 C 112.79 74.04 120.54 82.94 127.15 91.75 A 0.38 0.38 0.0 0 1 126.84 92.36 C 122.66 92.34 118.24 91.21 115.09 94.59 Q 110.78 99.20 106.24 103.91"/>
    <path stroke="#8a8a8a" vector-effect="non-scaling-stroke" d=" M 106.24 103.91 C 99.54 94.75 95.74 86.22 92.85 75.31"/>
    <path stroke="#aaaaaa" vector-effect="non-scaling-stroke" d=" M 212.19 202.79 Q 212.25 203.93 210.69 204.70 Q 193.34 213.28 177.73 224.67"/>
    <path stroke="#a8a8a8" vector-effect="non-scaling-stroke" d=" M 177.73 224.67 Q 164.85 233.97 153.26 244.59 A 0.26 0.26 0.0 0 1 152.83 244.36 L 154.09 237.11"/>
    <path stroke="#aaaaaa" vector-effect="non-scaling-stroke" d=" M 154.09 237.11 C 156.78 227.53 162.49 223.17 170.56 218.38 A 0.45 0.45 0.0 0 0 170.38 217.54 Q 163.10 216.66 155.76 217.68 C 103.71 224.90 70.07 268.69 77.09 321.36"/>
    <path stroke="#a8a8a8" vector-effect="non-scaling-stroke" d=" M 77.09 321.36 Q 77.66 326.29 78.74 331.25 Q 78.91 332.02 78.48 333.07"/>
    <path stroke="#797a79" vector-effect="non-scaling-stroke" d=" M 342.97 281.73 L 342.45 282.71 Q 342.22 283.13 341.77 282.96 C 336.40 280.93 332.54 280.55 326.07 277.31 A 1.21 1.16 3.9 0 1 325.50 276.68 Q 324.59 274.23 322.05 275.34 A 0.95 0.91 -44.5 0 1 321.32 275.35 Q 319.54 274.63 317.75 274.00 C 314.88 273.01 312.32 271.45 309.23 270.65 Q 307.45 270.20 305.45 269.30 C 300.81 267.24 294.80 266.58 290.57 263.93 C 289.12 263.02 287.42 262.76 285.99 261.88 Q 283.94 260.61 282.69 260.29 C 276.67 258.74 270.90 256.10 265.06 253.94 C 262.63 253.05 259.96 251.38 257.28 250.43 C 251.60 248.42 247.50 246.67 242.55 244.89 C 241.43 244.49 240.71 243.46 239.45 243.03 C 229.77 239.66 219.66 237.64 210.16 233.79 Q 201.64 230.32 196.93 229.57 Q 191.57 228.72 188.67 227.19 Q 188.23 226.96 187.73 227.02 C 185.55 227.29 178.90 229.82 177.77 226.06 Q 177.73 225.90 177.84 225.78 L 178.10 225.52 Q 178.40 225.23 178.08 224.96 L 177.73 224.67"/>
    <path stroke="#808180" vector-effect="non-scaling-stroke" d=" M 340.56 259.64 L 332.01 255.46 Q 331.57 255.25 331.09 255.25 L 328.21 255.25 A 1.60 1.53 -27.1 0 1 327.34 254.99 Q 324.75 253.31 322.04 251.80 C 318.87 250.03 315.08 249.86 311.53 248.40 Q 310.69 248.66 310.72 247.82 A 0.63 0.63 0.0 0 0 310.31 247.20 L 307.44 246.11 Q 307.20 246.02 307.33 245.81 L 307.52 245.49 Q 307.57 245.40 307.50 245.34 Q 305.60 243.89 301.19 243.08 Q 297.82 242.45 289.24 238.21 C 287.41 237.31 285.22 237.31 283.32 235.93 Q 282.92 235.63 282.43 235.55 Q 278.49 234.91 275.32 232.65 C 269.99 228.84 262.94 227.62 257.35 224.04 C 254.52 222.23 251.70 222.03 248.69 220.64 A 0.13 0.12 16.1 0 0 248.51 220.73 L 248.45 221.18 A 0.20 0.20 0.0 0 1 248.11 221.30 Q 243.39 216.55 236.87 215.24 A 1.56 1.53 -13.8 0 1 236.01 214.73 Q 233.22 211.49 228.97 211.21 Q 228.51 211.18 228.14 210.91 L 223.47 207.55 Q 223.00 207.22 222.43 207.21 C 219.12 207.16 217.55 204.51 213.75 204.40 Q 213.07 204.38 213.47 203.82 L 214.48 202.38"/>
    <path stroke="#747474" vector-effect="non-scaling-stroke" d=" M 342.91 297.88 Q 334.81 293.33 327.05 291.46 C 323.99 290.72 321.36 289.14 318.64 289.26 A 1.64 1.61 -30.5 0 1 317.75 289.04 Q 315.03 287.44 310.02 285.96 C 299.73 282.92 288.42 278.04 276.92 273.83 C 271.80 271.95 267.06 268.73 261.17 267.58 C 256.68 266.71 253.04 264.23 248.33 263.23 C 240.83 261.65 233.30 258.36 226.35 256.29 C 219.05 254.12 211.29 253.00 203.76 251.71 C 199.91 251.05 195.10 248.81 191.33 249.34 C 186.98 249.96 184.30 247.07 179.98 247.01 C 174.36 246.95 166.45 247.57 161.98 251.38 Q 158.97 253.94 155.48 255.89 Q 155.25 256.02 155.25 255.75 Q 155.25 255.63 155.25 255.48 Q 155.25 254.96 154.86 255.30 Q 150.29 259.22 145.03 262.15 C 142.68 263.47 141.94 266.53 139.90 268.38 C 130.60 276.81 122.48 287.39 113.03 300.90 C 112.09 302.25 110.24 303.12 109.16 304.56 C 105.28 309.73 100.53 314.39 96.10 319.10 Q 95.56 319.68 95.18 321.03 A 0.70 0.70 0.0 0 1 94.52 321.54 C 92.06 321.55 91.80 323.67 90.90 325.26 A 1.40 1.39 -81.8 0 1 90.01 325.93 Q 87.07 326.66 87.73 329.47 A 0.80 0.79 -29.3 0 1 87.51 330.23 C 85.74 331.93 85.79 334.06 82.92 334.27 Q 82.51 334.30 82.21 334.02 L 80.33 332.25 Q 79.65 331.61 79.74 332.54 Q 79.88 333.95 79.34 334.04"/>
    <path stroke="#6d6d6d" vector-effect="non-scaling-stroke" d=" M 338.08 323.81 L 337.27 324.00 Q 336.81 324.11 336.75 323.64 Q 336.64 322.80 335.76 323.02 A 1.11 1.08 -35.2 0 1 334.89 322.88 Q 330.90 320.26 326.35 318.96 C 324.07 318.31 321.21 316.66 317.88 317.03 A 1.09 1.09 0.0 0 1 317.15 316.84 L 310.66 312.32 Q 310.14 311.95 309.49 311.99 C 305.10 312.24 300.37 309.28 296.80 308.49 C 293.17 307.68 290.75 305.62 287.96 304.72 Q 283.42 303.24 278.83 301.92 C 275.85 301.05 273.73 298.88 269.84 299.26 A 1.40 1.34 57.2 0 1 268.96 299.05 C 267.01 297.82 265.67 296.64 263.47 295.90 C 255.74 293.27 247.88 292.04 240.05 289.46 C 233.50 287.31 226.86 286.66 220.39 284.39 Q 218.39 283.68 215.84 283.68 C 211.42 283.67 207.18 282.09 202.88 282.44 C 199.34 282.73 194.70 282.17 191.44 283.26 C 188.83 284.13 187.16 284.78 184.20 284.63 C 179.79 284.40 175.00 287.06 170.48 287.77 C 169.03 287.99 164.86 289.93 163.79 290.75 C 159.48 294.06 155.18 296.66 151.28 300.71 Q 147.75 304.38 143.75 307.51 Q 141.88 308.97 140.48 311.09 C 137.78 315.14 133.68 317.56 130.41 320.91 C 128.77 322.60 128.46 324.85 127.25 326.48 C 123.37 331.74 118.68 334.75 115.59 339.18 A 0.18 0.15 -82.4 0 1 115.51 339.25 L 113.96 340.15 Q 113.50 340.41 113.26 340.87 L 109.83 347.39 Q 109.56 347.90 109.01 348.11 Q 107.60 348.64 107.74 350.19 Q 107.78 350.68 107.29 350.73 Q 106.27 350.81 105.41 351.30"/>
    <path stroke="#797a79" vector-effect="non-scaling-stroke" d=" M 154.09 237.11 C 148.21 239.00 144.81 241.33 140.48 246.33 C 136.36 251.08 131.67 255.20 127.60 259.94 C 124.76 263.24 121.20 266.19 118.84 269.21 Q 115.74 273.16 112.87 277.28 C 111.14 279.76 108.38 281.70 106.83 284.71 C 105.30 287.68 102.82 289.45 101.24 292.46 Q 101.00 292.92 100.55 293.16 Q 94.65 296.41 92.89 303.05 Q 92.77 303.48 92.43 303.76 C 90.08 305.71 88.17 306.54 87.38 310.10 Q 87.28 310.54 86.84 310.65 C 82.60 311.79 82.61 314.95 78.98 316.73 Q 78.71 316.86 78.25 316.73 Q 77.82 316.60 77.84 317.05 Q 77.94 319.20 77.09 321.36"/>
    <path stroke="#666666" vector-effect="non-scaling-stroke" d=" M 323.69 350.17 Q 321.04 345.27 314.25 343.51 C 312.67 343.10 311.12 343.80 309.29 342.89 Q 308.79 342.64 308.25 342.72 L 306.28 342.98 A 0.91 0.88 -24.8 0 1 305.51 342.71 Q 304.19 341.30 302.31 341.89"/>
    <path stroke="#666666" vector-effect="non-scaling-stroke" d=" M 265.99 326.67 Q 263.49 322.53 256.98 322.12 C 253.14 321.87 250.03 319.15 245.52 321.08 Q 245.06 321.27 244.59 321.10 C 241.76 320.03 239.17 318.60 236.16 319.93 Q 235.66 320.15 235.18 319.88 Q 231.84 318.03 228.22 318.95 A 2.22 2.20 -43.3 0 1 227.07 318.92 L 222.62 317.56 Q 222.12 317.41 221.60 317.53 Q 218.61 318.24 213.84 317.16 C 211.67 316.67 208.66 318.25 206.27 318.20 C 200.58 318.09 194.44 317.66 189.03 319.79 C 184.63 321.52 176.67 323.97 173.74 327.55 C 172.06 329.60 169.48 331.00 167.89 332.89 Q 166.96 333.99 165.81 334.07 Q 165.36 334.10 165.18 334.52 Q 164.59 335.93 164.23 338.00 Q 164.01 339.28 162.73 339.26 Q 162.21 339.25 161.91 339.68 Q 160.90 341.12 159.33 340.80 Q 158.69 340.68 158.11 340.99 C 154.20 343.13 155.62 347.23 153.63 351.25 Q 153.42 351.68 153.46 352.15 Q 153.64 354.37 151.51 354.29 Q 148.08 354.17 147.10 356.71 Q 146.95 357.09 146.68 357.40 Q 145.93 358.25 146.01 359.39 Q 146.05 359.85 146.34 360.21 L 147.29 361.37"/>
    <path stroke="#adadad" vector-effect="non-scaling-stroke" d=" M 222.64 117.14 C 215.81 114.52 196.67 106.19 194.60 99.04 A 1.19 1.19 0.0 0 0 192.26 99.32 Q 192.07 103.74 194.39 106.89 C 200.38 115.03 212.43 122.43 222.66 117.93 A 0.43 0.43 0.0 0 0 222.64 117.14"/>
  </g>
  <path d=" M 173.42 41.09 L 174.96 42.27 Q 181.59 51.89 190.09 60.51 C 170.89 57.51 157.11 57.26 140.35 56.75 Q 139.63 53.46 141.07 49.18 C 146.04 43.22 146.63 32.88 148.02 25.44 Q 148.12 24.93 148.61 25.12 C 159.19 29.29 165.05 34.91 173.42 41.09 Z" style="fill: url(#gradient-1);"/>
  <path fill="#4a4b4a" d=" M 340.65 317.80 L 342.91 297.88 L 342.97 281.73 Q 342.77 270.70 340.56 259.64 Q 335.57 233.90 319.13 213.26 Q 318.82 212.87 318.35 212.70 C 305.94 208.34 292.77 202.45 279.67 201.08 A 0.25 0.25 0.0 0 1 279.67 200.58 Q 290.46 199.47 301.28 200.34 Q 301.39 200.35 301.42 200.25 Q 301.46 200.12 301.50 200.00 A 0.13 0.12 -74.3 0 0 301.42 199.84 C 299.40 199.35 297.29 198.98 295.34 198.17 Q 280.78 192.18 264.05 191.23 Q 262.93 178.31 263.56 174.82 C 264.38 170.32 264.47 162.49 262.74 158.15 Q 262.18 156.76 263.68 156.12 Q 267.81 154.37 268.30 152.19 Q 272.91 149.63 276.69 146.18 Q 278.27 144.73 279.48 142.07 Q 279.69 141.61 279.22 141.40 L 263.99 134.86 Q 264.61 134.88 264.85 134.20 Q 265.03 133.70 264.66 133.31 C 263.93 132.52 263.10 131.73 262.75 130.67 Q 252.76 100.12 228.76 79.10 C 225.78 76.49 222.21 75.39 218.65 73.34 A 0.55 0.55 0.0 0 0 217.87 74.05 L 218.06 74.47 C 209.32 67.79 200.83 64.28 190.09 60.51 Q 181.59 51.89 174.96 42.27 Q 175.34 41.75 175.26 41.38 C 184.88 40.70 195.41 39.75 204.17 39.74 C 290.52 39.71 364.70 101.94 374.99 188.79 Q 383.51 260.62 340.65 317.80 Z"/>
  <path fill="#858685" d=" M 173.42 41.09 Q 174.39 40.78 175.26 41.38 Q 175.34 41.75 174.96 42.27 L 173.42 41.09 Z"/>
  <path fill="#d8d8d8" d=" M 133.96 53.51 Q 136.30 54.29 139.26 57.05 L 139.04 58.59 Q 138.96 59.13 138.43 59.27 C 133.32 60.62 126.88 62.35 121.78 60.00 Q 111.20 55.12 100.83 50.42 A 0.46 0.46 0.0 0 0 100.22 51.03 Q 103.57 58.29 107.60 65.18 C 112.79 74.04 120.54 82.94 127.15 91.75 A 0.38 0.38 0.0 0 1 126.84 92.36 C 122.66 92.34 118.24 91.21 115.09 94.59 Q 110.78 99.20 106.24 103.91 C 99.54 94.75 95.74 86.22 92.85 75.31 Q 92.81 72.98 92.31 70.56 C 90.52 61.82 90.57 52.09 91.26 43.36 A 0.78 0.77 -83.4 0 1 92.14 42.65 Q 113.89 45.67 133.96 53.51 Z"/>
  <path fill="#858685" d=" M 141.07 49.18 Q 139.63 53.46 140.35 56.75 Q 139.72 56.58 139.26 57.05 Q 136.30 54.29 133.96 53.51 C 134.69 50.42 138.95 50.10 141.07 49.18 Z"/>
  <path fill="#f7f7f7" d=" M 139.26 57.05 Q 139.72 56.58 140.35 56.75 C 157.11 57.26 170.89 57.51 190.09 60.51 C 200.83 64.28 209.32 67.79 218.06 74.47 C 229.72 84.83 232.08 95.55 237.12 109.66 C 241.84 122.87 251.36 128.13 263.99 134.86 L 279.22 141.40 Q 279.69 141.61 279.48 142.07 Q 278.27 144.73 276.69 146.18 Q 272.91 149.63 268.30 152.19 Q 244.72 165.53 218.42 164.78 Q 211.62 161.85 204.37 161.55 Q 203.89 161.53 203.57 161.17 Q 201.29 158.62 197.31 158.14 C 135.22 150.62 83.42 200.50 66.77 255.74 Q 56.65 289.31 70.58 322.61 Q 71.83 325.60 73.68 328.32 Q 74.14 329.01 72.41 329.81 Q 50.02 307.94 38.15 278.94 C 37.64 277.70 37.78 276.32 37.28 274.99 Q 35.25 269.61 34.00 263.93 Q 34.69 262.71 34.39 260.78 Q 33.96 257.97 33.94 257.71 C 31.68 217.69 46.22 170.46 84.66 151.98 Q 86.25 151.21 84.49 151.27 L 65.26 151.84 A 0.74 0.74 0.0 0 1 64.63 150.68 C 67.24 147.02 70.24 143.91 72.70 140.07 Q 85.44 120.21 107.33 110.21 Q 108.73 111.09 109.97 110.98 A 0.82 0.82 0.0 0 0 110.70 110.36 Q 110.92 109.55 109.86 108.88 L 106.24 103.91 Q 110.78 99.20 115.09 94.59 C 118.24 91.21 122.66 92.34 126.84 92.36 A 0.38 0.38 0.0 0 0 127.15 91.75 C 120.54 82.94 112.79 74.04 107.60 65.18 Q 103.57 58.29 100.22 51.03 A 0.46 0.46 0.0 0 1 100.83 50.42 Q 111.20 55.12 121.78 60.00 C 126.88 62.35 133.32 60.62 138.43 59.27 Q 138.96 59.13 139.04 58.59 L 139.26 57.05 Z M 222.64 117.14 C 215.81 114.52 196.67 106.19 194.60 99.04 A 1.19 1.19 0.0 0 0 192.26 99.32 Q 192.07 103.74 194.39 106.89 C 200.38 115.03 212.43 122.43 222.66 117.93 A 0.43 0.43 0.0 0 0 222.64 117.14 Z"/>
  <path fill="#3b3b3b" d=" M 263.99 134.86 C 251.36 128.13 241.84 122.87 237.12 109.66 C 232.08 95.55 229.72 84.83 218.06 74.47 L 217.87 74.05 A 0.55 0.55 0.0 0 1 218.65 73.34 C 222.21 75.39 225.78 76.49 228.76 79.10 Q 252.76 100.12 262.75 130.67 C 263.10 131.73 263.93 132.52 264.66 133.31 Q 265.03 133.70 264.85 134.20 Q 264.61 134.88 263.99 134.86 Z"/>
  <path fill="#3b3b3b" d=" M 92.85 75.31 C 95.74 86.22 99.54 94.75 106.24 103.91 L 109.86 108.88 Q 108.21 109.28 107.33 110.21 Q 85.44 120.21 72.70 140.07 C 70.24 143.91 67.24 147.02 64.63 150.68 A 0.74 0.74 0.0 0 0 65.26 151.84 L 84.49 151.27 Q 86.25 151.21 84.66 151.98 C 46.22 170.46 31.68 217.69 33.94 257.71 Q 33.96 257.97 34.39 260.78 Q 34.69 262.71 34.00 263.93 C 29.14 246.53 27.24 228.61 27.15 210.57 C 26.88 157.57 51.16 108.11 92.85 75.31 Z"/>
  <path fill="#626262" d=" M 222.64 117.14 A 0.43 0.43 0.0 0 1 222.66 117.93 C 212.43 122.43 200.38 115.03 194.39 106.89 Q 192.07 103.74 192.26 99.32 A 1.19 1.19 0.0 0 1 194.60 99.04 C 196.67 106.19 215.81 114.52 222.64 117.14 Z"/>
  <path fill="#d8d8d8" d=" M 109.86 108.88 Q 110.92 109.55 110.70 110.36 A 0.82 0.82 0.0 0 1 109.97 110.98 Q 108.73 111.09 107.33 110.21 Q 108.21 109.28 109.86 108.88 Z"/>
  <path fill="#3b3b3b" d=" M 268.30 152.19 Q 267.81 154.37 263.68 156.12 Q 262.18 156.76 262.74 158.15 C 264.47 162.49 264.38 170.32 263.56 174.82 Q 262.93 178.31 264.05 191.23 Q 238.69 190.86 214.48 202.38 L 212.19 202.79 C 212.70 190.58 211.99 176.91 207.36 165.31 Q 207.15 164.80 207.70 164.80 L 218.42 164.78 Q 244.72 165.53 268.30 152.19 Z"/>
  <path fill="#d8d8d8" d=" M 218.42 164.78 L 207.70 164.80 Q 207.15 164.80 207.36 165.31 C 211.99 176.91 212.70 190.58 212.19 202.79 Q 212.25 203.93 210.69 204.70 Q 193.34 213.28 177.73 224.67 Q 164.85 233.97 153.26 244.59 A 0.26 0.26 0.0 0 1 152.83 244.36 L 154.09 237.11 C 156.78 227.53 162.49 223.17 170.56 218.38 A 0.45 0.45 0.0 0 0 170.38 217.54 Q 163.10 216.66 155.76 217.68 C 103.71 224.90 70.07 268.69 77.09 321.36 Q 77.66 326.29 78.74 331.25 Q 78.91 332.02 78.48 333.07 Q 75.14 328.66 72.41 329.81 Q 74.14 329.01 73.68 328.32 Q 71.83 325.60 70.58 322.61 Q 56.65 289.31 66.77 255.74 C 83.42 200.50 135.22 150.62 197.31 158.14 Q 201.29 158.62 203.57 161.17 Q 203.89 161.53 204.37 161.55 Q 211.62 161.85 218.42 164.78 Z"/>
  <path d="M 264.05 191.23 C 275.203 191.863 285.633 194.177 295.34 198.17 C 297.29 198.98 299.4 199.35 301.42 199.84 C 301.485 199.858 301.521 199.93 301.5 200 C 301.473 200.08 301.447 200.163 301.42 200.25 C 301.4 200.317 301.353 200.347 301.28 200.34 C 294.067 199.76 286.863 199.84 279.67 200.58 C 279.478 200.58 279.357 200.788 279.453 200.955 C 279.498 201.032 279.581 201.08 279.67 201.08 C 292.77 202.45 305.94 208.34 318.35 212.7 C 318.663 212.813 318.923 213 319.13 213.26 C 330.09 227.02 337.233 242.48 340.56 259.64 C 342.033 267.013 342.837 274.377 342.97 281.73 L 342.91 297.88 L 340.65 317.8 L 338.08 323.81 C 334.353 333.57 329.557 342.357 323.69 350.17 C 313.68 363.98 301.95 374.44 285.81 380.25 C 285.424 380.381 285.04 380.045 285.12 379.645 C 285.138 379.554 285.179 379.47 285.24 379.4 C 294.827 368.553 300.517 356.05 302.31 341.89 C 302.15 319.84 280.36 320.8 265.99 326.67 C 262.7 328.16 258.83 329.15 255.79 330.64 C 240.377 338.2 224.757 345.29 208.93 351.91 C 189.137 360.183 168.59 363.337 147.29 361.37 C 132.857 359.977 118.897 356.62 105.41 351.3 C 97.417 348 89.51 343.67 81.69 338.31 C 80.223 337.303 79.44 335.88 79.34 334.04 C 78.867 333.325 78.589 332.98 78.506 333.004 C 78.772 332.332 78.849 331.747 78.74 331.25 C 78.02 327.943 77.47 324.647 77.09 321.36 C 70.07 268.69 103.71 224.9 155.76 217.68 C 160.653 217 165.527 216.953 170.38 217.54 C 170.725 217.572 170.906 217.965 170.706 218.248 C 170.668 218.302 170.618 218.347 170.56 218.38 C 162.49 223.17 156.78 227.53 154.09 237.11 L 152.83 244.36 C 152.803 244.558 153 244.712 153.186 244.636 C 153.213 244.625 153.238 244.609 153.26 244.59 C 160.987 237.51 169.143 230.87 177.73 224.67 C 188.137 217.077 199.123 210.42 210.69 204.7 C 211.73 204.187 212.23 203.55 212.19 202.79 L 214.48 202.38 C 230.62 194.7 247.143 190.983 264.05 191.23 Z M 248.56 220.649 C 248.533 220.667 248.514 220.695 248.51 220.73 C 248.514 220.696 248.533 220.667 248.56 220.649 Z M 78.506 333.004 C 78.498 333.026 78.489 333.048 78.48 333.07 C 78.48 333.031 78.489 333.01 78.506 333.004 Z M 323.69 350.17 C 321.923 346.903 318.777 344.683 314.25 343.51 C 318.777 344.683 321.923 346.903 323.69 350.17 Z M 314.25 343.51 C 312.67 343.1 311.12 343.8 309.29 342.89 C 311.12 343.8 312.67 343.1 314.25 343.51 Z M 305.51 342.71 C 304.63 341.77 303.563 341.497 302.31 341.89 C 303.563 341.497 304.63 341.77 305.51 342.71 Z" style="fill: url(#gradient-0);"/>
</svg>