<?xml version="1.0" encoding="utf-8"?>
<svg version="1.1" id="Layer_1" x="0px" y="0px" viewBox="0 0 1781 2466.8" style="enable-background:new 0 0 1781 2466.8;" xmlns="http://www.w3.org/2000/svg">
  <style type="text/css">
	.st0{fill:#FFA000;}
	.st1{fill:#F57F17;}
	.st2{fill:#FFCA28;}
</style>
  <path class="st0" d="M 1146.636 918.97 L 920.072 1129.921 L 709.763 705.539 L 818.407 461.527 C 845.866 412.853 890.776 412.21 918.235 461.527 L 1146.636 918.97 Z" style=""/>
  <path class="st1" d="M 920.164 1129.83 L 72.685 1918.072 L 709.855 705.539 L 920.164 1129.83 Z" style=""/>
  <path class="st2" d="M 1395.056 596.344 C 1435.649 557.681 1477.435 570.722 1487.996 625.64 L 1708.315 1907.419 L 977.562 2346.128 C 951.94 2360.455 883.979 2366.057 883.979 2366.057 C 883.979 2366.057 822.172 2358.526 798.478 2345.486 L 72.685 1918.072 L 1395.056 596.344 Z" style=""/>
  <path class="st0" d="M 709.855 705.539 L 72.685 1918.072 L 356.647 145.788 C 367.301 90.869 398.433 85.267 426.535 133.942 L 709.855 705.539 Z" style=""/>
</svg>