<?xml version="1.0" encoding="utf-8"?>
<svg version="1.1" viewBox="91.524 0 106.884 103.444" xmlns="http://www.w3.org/2000/svg">
  <path fill="#ef6456" d="M 125.223 65.542 C 111.897 59.263 107.556 44.146 110.797 30.676 C 114.252 16.336 128.482 10.373 142.021 10.244 C 155.323 10.113 168.605 10.091 181.868 10.176 C 181.929 10.176 181.979 10.226 181.979 10.287 L 181.962 92.781 C 181.962 93.139 181.782 93.319 181.425 93.319 L 163.185 93.319 C 162.902 93.319 162.758 93.176 162.758 92.892 L 162.758 70.285 C 162.758 70.048 162.568 69.859 162.333 69.859 L 143.18 69.859 C 142.89 69.859 142.675 69.983 142.532 70.234 L 129.506 92.926 C 129.358 93.187 129.133 93.319 128.831 93.319 L 108.374 93.319 C 107.942 93.319 107.843 93.139 108.076 92.781 L 125.403 66.19 C 125.549 65.96 125.465 65.655 125.223 65.542 Z M 162.758 52.447 L 162.758 25.387 C 162.758 25.212 162.617 25.072 162.443 25.072 L 141.585 25.072 C 134.075 25.072 127.987 30.709 127.987 37.663 L 127.987 40.171 C 127.987 47.124 134.075 52.762 141.585 52.762 L 162.443 52.762 C 162.617 52.762 162.758 52.621 162.758 52.447 Z" style=""/>
</svg>