<?xml version="1.0" encoding="utf-8"?>
<svg width="256px" height="283px" viewBox="0 0 256 283" version="1.1" preserveAspectRatio="xMidYMid" xmlns="http://www.w3.org/2000/svg">
  <g style="" transform="matrix(0.87642, 0, 0, 0.87642, 15.818224, 17.606203)">
    <path d="M 222.999 139.45 C 222.999 149.091 215.155 156.935 205.513 156.935 C 195.873 156.935 188.029 149.091 188.029 139.45 C 188.029 129.808 195.873 121.965 205.513 121.965 C 215.155 121.965 222.999 129.808 222.999 139.45 Z M 226.975 28.375 L 198.804 111.462 C 197.583 111.755 196.393 112.124 195.237 112.568 L 167.408 55.797 L 139.498 112.232 C 138.292 111.817 137.051 111.475 135.778 111.221 L 107.704 28.375 L 226.975 28.375 Z M 130.147 121.965 C 139.788 121.965 147.632 129.808 147.632 139.45 C 147.632 149.091 139.788 156.935 130.147 156.935 C 120.507 156.935 112.663 149.091 112.663 139.45 C 112.663 129.808 120.507 121.965 130.147 121.965 Z M 54.497 122.131 C 64.139 122.131 71.982 129.975 71.982 139.616 C 71.982 149.257 64.139 157.101 54.497 157.101 C 44.857 157.101 37.012 149.257 37.012 139.616 C 37.012 129.975 44.857 122.131 54.497 122.131 Z M 225.079 184.572 C 223.378 194.373 217.324 202.934 208.472 208.061 C 200.219 212.841 190.33 214.268 179.86 215.777 C 174.251 216.586 168.452 217.423 162.785 218.82 C 147.804 222.515 133.293 229.722 119.259 236.693 C 91.176 250.641 66.923 262.687 44.054 246.837 C 27.303 235.228 28.077 213.746 30.028 201.976 C 31.836 191.07 36.726 181.027 41.455 171.314 C 42.273 169.633 43.068 167.986 43.848 166.35 C 46.193 167.288 48.687 167.927 51.286 168.217 C 46.474 184.103 54.044 201.376 69.931 209.538 L 72.105 210.656 L 74.408 209.835 C 86.97 205.363 98.543 198.184 108.809 188.499 C 115.446 182.239 121.149 175.312 125.838 167.911 C 127.244 168.123 128.683 168.235 130.147 168.235 C 145.965 168.235 158.844 155.411 158.932 139.613 L 176.73 139.87 C 176.956 155.551 189.781 168.235 205.513 168.235 C 211.611 168.235 217.269 166.323 221.927 163.077 C 225.163 169.698 226.368 177.15 225.079 184.572 Z" fill="#C63D14" style=""/>
  </g>
</svg>