<?xml version="1.0" encoding="utf-8"?>
<svg viewBox="0 0 256 256" xmlns="http://www.w3.org/2000/svg">
  <path fill="#e8883a" d="M 128 21.267 C 69.159 21.267 21.267 69.181 21.267 128 C 21.267 186.82 69.181 234.735 128 234.735 C 186.82 234.735 234.735 186.82 234.735 128 C 234.735 69.181 186.82 21.267 128 21.267 Z M 127.841 30.75 C 131.637 30.848 134.663 33.964 134.66 37.773 C 134.66 43.176 128.81 46.557 124.127 43.854 C 121.956 42.599 120.617 40.283 120.617 37.773 C 120.616 33.814 123.886 30.636 127.841 30.75 Z M 143.917 42.312 C 168.87 46.985 190.504 62.392 203.077 84.445 L 194.792 103.14 C 193.368 106.369 194.836 110.162 198.042 111.608 L 213.984 118.675 C 214.477 123.658 214.539 128.675 214.164 133.668 L 205.291 133.668 C 204.411 133.668 204.05 134.255 204.05 135.114 L 204.05 139.178 C 204.05 148.752 198.653 150.851 193.909 151.371 C 189.395 151.889 184.403 149.473 183.772 146.72 C 181.107 131.749 176.682 128.564 169.681 123.033 C 178.375 117.524 187.407 109.372 187.407 98.489 C 187.407 86.726 179.347 79.319 173.859 75.685 C 166.137 70.603 157.601 69.587 155.3 69.587 L 63.627 69.587 C 76.302 55.426 93.294 45.839 111.969 42.312 L 122.784 53.646 C 125.222 56.197 129.264 56.312 131.817 53.849 L 143.917 42.312 Z M 44.117 94.29 C 47.915 94.399 50.939 97.512 50.936 101.312 C 50.936 106.717 45.084 110.096 40.404 107.392 C 38.229 106.139 36.891 103.82 36.891 101.312 C 36.89 97.353 40.159 94.175 44.117 94.29 Z M 211.544 94.606 C 215.343 94.716 218.366 97.827 218.364 101.628 C 218.364 107.034 212.512 110.411 207.831 107.709 C 205.659 106.455 204.319 104.136 204.319 101.628 C 204.318 97.668 207.588 94.491 211.544 94.606 Z M 57.349 95.734 L 69.587 95.734 L 69.587 150.919 L 44.886 150.919 C 41.835 140.205 40.883 129.004 42.085 117.93 L 57.213 111.202 C 60.442 109.757 61.91 105.986 60.466 102.757 L 57.349 95.734 Z M 108.424 96.321 L 137.573 96.321 C 139.086 96.321 148.211 98.06 148.211 104.902 C 148.211 110.569 141.209 112.601 135.451 112.601 L 108.401 112.601 L 108.424 96.321 Z M 108.424 135.971 L 130.754 135.971 C 132.786 135.971 141.662 136.558 144.483 147.893 C 145.364 151.371 147.328 162.705 148.661 166.34 C 149.994 170.404 155.389 178.533 161.147 178.533 L 197.591 178.533 C 195.149 181.804 192.477 184.898 189.597 187.793 L 174.763 184.608 C 171.308 183.862 167.897 186.075 167.154 189.53 L 163.632 205.969 C 140.71 216.351 114.401 216.228 91.581 205.629 L 88.058 189.191 C 87.312 185.736 83.927 183.524 80.471 184.269 L 65.952 187.385 C 63.258 184.606 60.753 181.649 58.456 178.533 L 129.062 178.533 C 129.852 178.533 130.394 178.399 130.394 177.652 L 130.394 152.681 C 130.394 151.957 129.852 151.8 129.062 151.8 L 108.401 151.8 L 108.424 135.971 Z M 75.843 193.166 C 79.64 193.277 82.662 196.386 82.661 200.188 C 82.661 205.593 76.809 208.971 72.128 206.269 C 69.954 205.015 68.617 202.696 68.617 200.188 C 68.614 196.228 71.883 193.05 75.843 193.166 Z M 179.821 193.48 C 183.621 193.591 186.641 196.704 186.64 200.504 C 186.64 205.909 180.788 209.289 176.107 206.584 C 173.934 205.331 172.595 203.013 172.595 200.504 C 172.593 196.545 175.863 193.367 179.821 193.48 Z" style=""/>
  <path fill="#e8883a" d="M 228.774 128 C 228.774 183.655 183.655 228.774 128 228.774 C 72.344 228.774 27.228 183.655 27.228 128 C 27.228 72.344 72.344 27.228 128 27.228 C 183.655 27.228 228.774 72.344 228.774 128 Z M 226.877 118.269 L 242.592 128 L 226.877 137.733 L 240.379 150.355 L 223.083 156.834 L 233.877 171.85 L 215.609 174.831 L 223.286 191.676 L 204.794 191.021 L 209.038 209.038 L 191.021 204.794 L 191.676 223.286 L 174.831 215.609 L 171.85 233.877 L 156.834 223.083 L 150.355 240.379 L 137.733 226.877 L 128 242.592 L 118.269 226.877 L 105.646 240.379 L 99.167 223.083 L 84.151 233.877 L 81.171 215.609 L 64.326 223.286 L 64.981 204.794 L 46.963 209.038 L 51.208 191.021 L 32.714 191.676 L 40.392 174.831 L 22.125 171.85 L 32.919 156.834 L 15.621 150.355 L 29.125 137.733 L 13.409 128 L 29.125 118.269 L 15.621 105.646 L 32.919 99.167 L 22.125 84.151 L 40.392 81.171 L 32.714 64.326 L 51.208 64.982 L 46.963 46.963 L 64.981 51.208 L 64.326 32.714 L 81.171 40.392 L 84.151 22.125 L 99.167 32.919 L 105.646 15.621 L 118.269 29.125 L 128 13.409 L 137.733 29.125 L 150.355 15.621 L 156.834 32.919 L 171.85 22.125 L 174.831 40.392 L 191.676 32.714 L 191.021 51.208 L 209.038 46.963 L 204.794 64.982 L 223.286 64.326 L 215.609 81.171 L 233.877 84.151 L 223.083 99.167 L 240.379 105.646 L 226.877 118.269 Z" fill-rule="evenodd" stroke="#e8883a" stroke-linecap="round" stroke-linejoin="round" stroke-width="3" style=""/>
</svg>