<?xml version="1.0" encoding="utf-8"?>
<svg viewBox="12.100000000000001 8.4 262.79999999999995 272.2" width="2376" height="2500" xmlns="http://www.w3.org/2000/svg">
  <linearGradient id="a" gradientUnits="userSpaceOnUse" x1="53.496" x2="177.932" y1="247.701" y2="115.323" gradientTransform="matrix(0.874081, 0, 0, 0.874081, 19.564031, 20.59847)">
    <stop offset="0" stop-color="#e01d84"/>
    <stop offset="0.401" stop-color="#df1d85"/>
    <stop offset="0.77" stop-color="#932c87"/>
    <stop offset="1" stop-color="#5d2f88"/>
  </linearGradient>
  <radialGradient id="b" cx="190.456" cy="80.2" gradientTransform="matrix(0.874081, 0.002089, -0.001748, 0.730906, 19.703883, 31.686183)" gradientUnits="userSpaceOnUse" r="121.582">
    <stop offset="0" stop-color="#e01d84"/>
    <stop offset="0.139" stop-color="#de1e85"/>
    <stop offset="0.285" stop-color="#d62085"/>
    <stop offset="0.434" stop-color="#c92386"/>
    <stop offset="0.586" stop-color="#b72786"/>
    <stop offset="0.739" stop-color="#9d2b87"/>
    <stop offset="0.891" stop-color="#7c2e88"/>
    <stop offset="1" stop-color="#5d2f88"/>
  </radialGradient>
  <linearGradient id="c" gradientUnits="userSpaceOnUse" x1="83.212" x2="137.371" y1="62.336" y2="62.336" gradientTransform="matrix(0.874081, 0, 0, 0.874081, 19.564031, 20.59847)">
    <stop offset="0" stop-color="#e01d84"/>
    <stop offset="0.238" stop-color="#da1e85"/>
    <stop offset="0.658" stop-color="#c72085"/>
    <stop offset="0.999" stop-color="#b52284"/>
  </linearGradient>
  <path d="M 45.437 173.825 C 40.892 159.664 39.58 144.718 42.203 129.334 C 43.339 122.953 45.087 116.835 47.01 110.629 C 47.01 110.629 59.072 71.033 99.892 52.939 C 99.892 52.939 113.965 45.51 135.117 44.985 C 135.117 44.985 132.233 42.188 130.397 40.964 C 120.433 34.321 105.574 32.136 96.571 41.489 C 93.861 44.286 91.588 47.345 89.053 50.142 C 86.169 53.289 82.673 55.911 78.652 57.397 C 75.156 58.708 71.659 58.446 68.075 59.058 C 64.404 59.67 60.646 60.981 57.674 63.341 C 54.44 65.963 53.129 69.459 52.779 73.48 C 52.429 76.627 52.517 79.861 52.342 83.008 C 51.905 92.273 48.933 94.895 42.29 100.052 C 39.493 102.15 37.133 104.947 35.385 107.919 C 30.14 117.184 38.532 126.799 38.969 136.152 C 39.056 138.075 38.881 139.998 38.182 141.833 C 37.483 143.844 36.084 145.155 34.948 146.816 C 33.374 149.001 32.326 151.623 32.763 154.333 C 33.2 157.042 34.598 159.577 35.909 161.937 C 38.444 166.133 41.591 169.891 44.912 173.475 C 45.087 173.475 45.262 173.65 45.437 173.825" fill="#e32286" style=""/>
  <path d="M 212.211 207.389 C 232.315 198.648 240.881 183.527 240.881 183.527 C 259.674 157.916 253.293 130.907 253.293 130.907 C 241.318 156.955 230.392 164.122 230.392 164.122 C 259.849 119.282 230.567 92.185 230.567 92.185 C 242.542 117.709 226.634 148.826 226.634 148.826 C 213.26 176.971 194.293 187.023 194.293 187.023 C 215.445 190.957 231.004 176.709 231.004 176.709 C 200.674 209.487 167.808 207.914 167.808 207.914 C 181.619 223.385 202.334 222.074 202.334 222.074 C 175.238 228.455 149.802 219.452 128.912 202.057 C 124.978 198.823 121.22 195.327 117.723 191.568 C 117.723 191.568 114.577 188.247 113.965 187.373 L 113.877 187.285 C 113.44 203.456 130.31 218.49 130.31 218.49 C 109.157 209.749 99.455 190.782 99.455 190.782 C 99.455 190.782 85.207 166.482 95.522 138.774 C 105.836 111.066 137.04 105.122 137.04 105.122 C 162.826 117.621 184.678 121.555 184.678 121.555 C 230.742 129.246 228.12 106.695 228.12 106.695 C 228.557 87.291 199.275 66.662 199.275 66.662 C 147.092 27.941 99.892 52.939 99.892 52.939 C 59.072 71.033 47.01 110.629 47.01 110.629 C 45.087 116.835 43.339 122.953 42.203 129.334 C 37.745 155.294 44.475 179.856 59.072 201.708 C 81.799 235.622 118.685 247.335 118.685 247.335 C 173.315 265.865 210.638 238.594 210.638 238.594 C 244.989 214.994 251.895 187.722 251.895 187.722 C 224.186 209.4 212.211 207.389 212.211 207.389 Z M 169.556 79.861 C 172.178 79.861 174.276 81.959 174.276 84.581 C 174.276 87.203 172.178 89.301 169.556 89.301 C 166.934 89.301 164.836 87.203 164.836 84.581 C 164.836 81.959 166.934 79.861 169.556 79.861 Z" fill="url(#a)" style=""/>
  <path d="M 228.032 106.608 C 228.469 87.203 199.188 66.575 199.188 66.575 C 147.005 27.941 99.805 52.939 99.805 52.939 C 58.985 71.033 46.923 110.629 46.923 110.629 C 44.563 117.359 42.465 127.673 42.465 127.673 C 39.93 140.61 41.066 152.584 41.066 152.584 C 42.115 164.035 44.65 171.727 44.65 171.727 C 47.272 179.943 48.496 182.478 48.496 182.478 C 48.409 182.216 47.972 180.293 47.972 180.293 C 47.972 180.293 44.301 162.636 47.709 145.679 C 47.709 145.679 50.681 128.023 62.744 114.387 C 62.744 114.387 82.323 86.504 118.772 97.43 C 118.772 97.43 126.639 100.227 129.349 101.626 C 132.058 102.937 136.778 104.947 136.778 104.947 C 162.564 117.446 184.416 121.38 184.416 121.38 C 230.654 129.159 228.032 106.608 228.032 106.608 Z M 169.556 89.388 C 166.934 89.388 164.836 87.291 164.836 84.668 C 164.836 82.046 166.934 79.948 169.556 79.948 C 172.178 79.948 174.276 82.046 174.276 84.668 C 174.276 87.291 172.178 89.388 169.556 89.388 Z" fill="url(#b)" style=""/>
  <path d="M 139.663 71.47 L 109.857 62.205 C 109.682 62.205 108.808 61.767 107.234 62.205 C 107.234 62.205 89.665 66.662 92.725 76.277 C 92.725 76.277 94.56 82.308 99.542 88.165 L 132.32 86.591 L 139.663 71.47 Z" fill="url(#c)" style=""/>
</svg>