<?xml version="1.0" encoding="utf-8"?>
<svg version="1.1" id="Layer_1" x="0px" y="0px" viewBox="0 0 98.1 118" style="enable-background:new 0 0 98.1 118;" xmlns="http://www.w3.org/2000/svg">
  <style type="text/css">
	.st0{fill:#FF3E00;}
	.st1{fill:#FFFFFF;}
</style>
  <path class="st0" d="M 85.335 22.184 C 76.088 8.866 57.68 4.964 44.447 13.362 L 21.119 28.292 C 14.757 32.279 10.345 38.811 9.073 46.191 C 7.97 52.384 8.903 58.746 11.872 64.26 C 9.836 67.314 8.479 70.707 7.885 74.27 C 6.528 81.82 8.309 89.624 12.721 95.817 C 22.052 109.135 40.375 113.037 53.609 104.639 L 76.937 89.794 C 83.299 85.807 87.71 79.275 88.983 71.895 C 90.085 65.702 89.152 59.34 86.183 53.826 C 88.219 50.772 89.576 47.379 90.17 43.816 C 91.612 36.181 89.831 28.377 85.335 22.184" style=""/>
  <path class="st1" d="M 42.157 97.089 C 34.607 99.04 26.718 96.071 22.306 89.709 C 19.592 85.976 18.574 81.311 19.337 76.73 C 19.507 75.966 19.677 75.288 19.846 74.524 L 20.27 73.167 L 21.458 74.015 C 24.257 76.051 27.311 77.578 30.62 78.596 L 31.468 78.851 L 31.383 79.699 C 31.298 80.887 31.638 82.159 32.316 83.177 C 33.674 85.128 36.049 86.061 38.339 85.467 C 38.848 85.298 39.357 85.128 39.781 84.874 L 63.025 70.028 C 64.212 69.265 64.976 68.162 65.23 66.805 C 65.485 65.448 65.145 64.005 64.382 62.903 C 63.025 60.952 60.649 60.103 58.359 60.697 C 57.85 60.867 57.341 61.036 56.917 61.291 L 48.01 66.974 C 46.568 67.908 44.956 68.586 43.259 69.01 C 35.709 70.961 27.82 67.992 23.409 61.63 C 20.779 57.898 19.677 53.232 20.525 48.651 C 21.288 44.24 24.003 40.253 27.82 37.878 L 51.148 23.033 C 52.591 22.1 54.202 21.421 55.899 20.912 C 63.449 18.961 71.338 21.93 75.749 28.292 C 78.464 32.025 79.482 36.69 78.718 41.271 C 78.548 42.035 78.379 42.713 78.124 43.477 L 77.7 44.834 L 76.513 43.986 C 73.713 41.95 70.659 40.423 67.351 39.405 L 66.503 39.15 L 66.588 38.302 C 66.672 37.114 66.333 35.842 65.654 34.824 C 64.297 32.873 61.922 32.025 59.631 32.618 C 59.122 32.788 58.614 32.958 58.189 33.212 L 34.946 48.057 C 33.758 48.821 32.995 49.924 32.74 51.281 C 32.486 52.638 32.825 54.08 33.589 55.183 C 34.946 57.134 37.321 57.983 39.612 57.389 C 40.121 57.219 40.63 57.049 41.054 56.795 L 49.961 51.111 C 51.403 50.178 53.015 49.5 54.711 48.991 C 62.261 47.039 70.15 50.009 74.561 56.371 C 77.276 60.103 78.294 64.769 77.531 69.35 C 76.767 73.761 74.053 77.748 70.235 80.123 L 46.907 94.968 C 45.465 95.901 43.853 96.58 42.157 97.089" style=""/>
</svg>