<?xml version="1.0" encoding="utf-8"?>
<svg fill="none" height="2500" viewBox="-7.01114223 -.48904824 219.24490765 231.9000649" width="2434" xmlns="http://www.w3.org/2000/svg">
  <path d="M 138.55 87.536 C 138.55 102.569 122.276 111.964 109.257 104.448 C 103.215 100.96 99.493 94.513 99.493 87.536 C 99.493 72.503 115.767 63.107 128.786 70.624 C 134.828 74.112 138.55 80.559 138.55 87.536 Z" fill="#ffc131" style=""/>
  <circle cx="-86.178" cy="-143.458" fill="#24c8db" r="19.528" transform="matrix(-1, 0, 0, -1, 0, 0)" style=""/>
  <g clip-rule="evenodd" fill-rule="evenodd" style="" transform="matrix(0.887652, 0, 0, 0.887652, 11.527105, 12.972963)">
    <path d="m166.7 154.5a84 84 0 0 1 -29 11.8 59 59 0 0 0 2.9-26.6 59 59 0 1 0 -67.4-90.1 98 98 0 0 0 -32.2 9.4 84 84 0 1 1 125.7 95.5zm-124.7-80.2 20.6 2.5a59 59 0 0 1 2.6-11.7 84 84 0 0 0 -23.2 9.2z" fill="#ffc131"/>
    <path d="m38.4 76.5a84 84 0 0 1 29.2-11.9 58.9 58.9 0 0 0 -3.3 26.7 59 59 0 1 0 67.7 90 98 98 0 0 0 32.2-9.3 84 84 0 1 1 -125.8-95.5zm124.7 80.2-.4.2z" fill="#24c8db"/>
  </g>
</svg>