<?xml version="1.0" encoding="utf-8"?>
<svg height="2455" viewBox="-11.9 -2 1003.9 995.6" width="2500" xmlns="http://www.w3.org/2000/svg">
  <path d="M 79.518 370.53 C 79.518 370.53 59.132 355.835 83.595 336.214 L 140.591 285.249 C 140.591 285.249 156.9 268.091 174.143 283.041 L 700.101 681.246 L 700.101 872.194 C 700.101 872.194 699.846 902.179 661.367 898.866 L 79.518 370.53 Z" fill="#2489ca" style=""/>
  <path d="M 215.085 493.61 L 79.518 616.86 C 79.518 616.86 65.588 627.223 79.518 645.741 L 142.46 702.991 C 142.46 702.991 157.41 719.045 179.494 700.783 L 323.215 591.803 L 215.085 493.61 Z" fill="#1070b3" style=""/>
  <path d="M 453.091 494.63 L 701.714 304.786 L 700.101 114.856 C 700.101 114.856 689.483 73.405 654.062 94.98 L 323.215 396.098 L 453.091 494.63 Z" fill="#0877b9" style=""/>
  <path d="M 661.367 899.121 C 675.807 913.901 693.305 909.059 693.305 909.059 L 887.057 813.585 C 911.86 796.682 908.377 775.701 908.377 775.701 L 908.377 205.574 C 908.377 180.516 882.725 171.852 882.725 171.852 L 714.795 90.903 C 678.101 68.224 654.062 94.98 654.062 94.98 C 654.062 94.98 684.981 72.725 700.101 114.856 L 700.101 868.712 C 700.101 873.893 698.996 878.99 696.788 883.577 C 692.371 892.495 682.773 900.82 659.753 897.337 L 661.367 899.121 Z" fill="#3c99d4" style=""/>
</svg>